# xmcd
#
# Track frame offsets:
#	150
#	19849
#	36601
#	50996
#	71924
#	96256
#	111967
#	130088
#	147343
#	166966
#	185235
#	206094
#	227415
#	243131
#	264619
#	282515
#
# Disc length: 4029 seconds
#
# Revision: 0
# Processed by: cddbd v1.5.2PL0 Copyright (c) Steve Scherf et al.
# Submitted via: EasyCDDAExtractor 8.2.2.1
#
DISCID=fe0fbb10
DTITLE=Various Artist - Elements 樂隊歌曲
DYEAR=2009
DGENRE=
TTITLE0=小島 - 又是黃昏 
TTITLE1=Chyna - BACK TWO GETHER 
TTITLE2=雷有輝 - CELIA 
TTITLE3=達明一派 - 石頭記 
TTITLE4=達明一派 - 崩裂 
TTITLE5=達明一派 - 今夜星光燦爛 
TTITLE6=達明一派 - 溜冰滾族 
TTITLE7=Beyond - 亞拉伯跳舞女郎 
TTITLE8=Beyond - 昔日舞曲 
TTITLE9=City Beat - 守望你 
TTITLE10=Beyond - 午夜迷牆 
TTITLE11=浮世繪 - 憂傷都市 
TTITLE12=浮世繪 - 月滿繁星夜 
TTITLE13=Beyond - 歲月無聲 
TTITLE14=黃家駒, Beyond - 戰勝心魔
TTITLE15=雷有曜, 太極 - 迷途 
EXTD=
EXTT0=
EXTT1=
EXTT2=
EXTT3=
EXTT4=
EXTT5=
EXTT6=
EXTT7=
EXTT8=
EXTT9=
EXTT10=
EXTT11=
EXTT12=
EXTT13=
EXTT14=
EXTT15=
PLAYORDER=
